<svg xmlns="http://www.w3.org/2000/svg" x="0px" y="0px" width="100" height="100" viewBox="0,0,255.9996,255.9996">
<g transform="translate(33.27995,33.27995) scale(0.74,0.74)"><g fill="none" fill-rule="none" stroke="none" stroke-width="1" stroke-linecap="butt" stroke-linejoin="miter" stroke-miterlimit="10" stroke-dasharray="" stroke-dashoffset="0" font-family="none" font-weight="none" font-size="none" text-anchor="none" style="mix-blend-mode: normal"><g transform="scale(4,4)"><path d="M3.995,32.003c0,-14.441 10.953,-26.343 25,-27.842v8.064c-9.619,1.449 -17,9.757 -17,19.777c0,11.04 8.961,20.001 20.001,20.001c11.04,0 20.001,-8.961 20.001,-20.001c0,-1.444 -0.153,-2.852 -0.444,-4.209l6.76,-5.371c1.089,2.989 1.684,6.216 1.684,9.58c0,15.456 -12.545,28.002 -28.001,28.002c-15.456,0 -28.001,-12.545 -28.001,-28.001z" fill="#ff0909" fill-rule="evenodd"></path><path d="M21.999,32.001c0,-5.519 4.48,-9.999 9.999,-9.999c2.249,0 4.327,0.745 5.999,2.001v-19.359c5.899,1.289 11.104,4.44 14.968,8.804l-4.552,7.129c-1.677,-2.404 -3.869,-4.424 -6.415,-5.897l-0.001,17.32c0,5.519 -4.48,9.999 -9.999,9.999c-5.519,0 -9.999,-4.48 -9.999,-9.998z" fill="#94d82d" fill-rule="nonzero"></path><path d="M8.57,47.341c1.652,-1.261 4.027,-1.048 5.425,0.533c4.405,4.992 10.837,8.131 18.001,8.131c7.188,0 13.641,-3.161 18.048,-8.185c1.392,-1.588 3.768,-1.808 5.424,-0.549c-4.997,7.665 -13.647,12.735 -23.472,12.735c-9.795,-0.001 -18.422,-5.04 -23.426,-12.665z" fill="#e88b00" fill-rule="evenodd"></path><path d="M2.995,32.003c0,-14.957 11.344,-27.283 25.893,-28.835c0.591,-0.064 1.107,0.4 1.107,0.993v8.064c0,0.495 -0.363,0.916 -0.852,0.989c-9.136,1.377 -16.148,9.271 -16.148,18.788c0,10.488 8.513,19.001 19.001,19.001c10.487,0 19.001,-8.513 19.001,-19.001c0,-1.372 -0.147,-2.711 -0.423,-3.999c-0.08,-0.372 0.059,-0.756 0.356,-0.993l6.76,-5.371c0.533,-0.424 1.328,-0.2 1.561,0.441c1.129,3.097 1.745,6.44 1.745,9.921c0,16.009 -12.993,29.002 -29.001,29.002c-16.008,0.002 -29,-12.99 -29,-29zM58.998,32.003c0,-2.433 -0.324,-4.792 -0.928,-7.035l-0.272,-0.857l-5.167,4.104l0.247,1.547c0.079,0.736 0.12,1.484 0.12,2.241c0,11.593 -9.409,21.001 -21.001,21.001c-11.593,0 -21.001,-9.408 -21.001,-21.001c0,-9.863 6.811,-18.145 15.985,-20.396l1.015,-0.201v-6.078l-1.399,0.216c-12.32,2.503 -21.602,13.406 -21.602,26.459c0,14.904 12.097,27.002 27.001,27.002c14.903,0 27.002,-12.098 27.002,-27.002z" fill="#000000" fill-rule="evenodd"></path><path d="M22.071,33.209c1.764,-0.591 3.761,0.119 4.729,1.791c1.041,1.8 2.977,3 5.197,3c2.215,0 4.151,-1.197 5.195,-3c0.967,-1.672 2.965,-2.381 4.731,-1.789c-0.597,4.949 -4.816,8.789 -9.925,8.789c-5.111,-0.001 -9.331,-3.841 -9.927,-8.791z" fill="#df366d" fill-rule="evenodd"></path><path d="M46.05,12.549c-1.225,-0.889 -2.537,-1.664 -3.921,-2.309c-1.913,-0.893 -2.788,-3.111 -2.045,-5.052c4.327,1.305 8.213,3.629 11.379,6.692c-1.337,1.597 -3.702,1.909 -5.413,0.669z" fill="#ff4b82" fill-rule="evenodd"></path><path d="M20.999,32.001c0,-6.071 4.927,-10.999 10.999,-10.999c1.236,0 2.427,0.205 3.537,0.584l1.46,0.632l0.001,-17.573c0,-0.637 0.589,-1.112 1.213,-0.976c6.111,1.336 11.503,4.6 15.503,9.117c0.296,0.335 0.335,0.825 0.095,1.201l-4.552,7.129c-0.384,0.6 -1.256,0.619 -1.664,0.035c-1.196,-1.713 -2.667,-3.221 -4.347,-4.459l-0.248,-0.163v15.472c0,6.071 -4.928,10.997 -10.999,10.997c-6.071,0.001 -10.998,-4.925 -10.998,-10.997zM40.997,32.001l0.001,-17.32c0,-0.768 0.835,-1.249 1.5,-0.865c2.004,1.161 3.8,2.644 5.315,4.377l0.515,0.659l3.371,-5.279l-0.94,-0.983c-3.031,-2.931 -6.744,-5.157 -10.877,-6.419l-0.885,-0.231v18.063c0,0.823 -0.944,1.295 -1.601,0.8c-1.505,-1.131 -3.373,-1.801 -5.397,-1.801c-4.967,0 -8.999,4.033 -8.999,8.999c0,4.967 4.032,8.999 8.999,8.999c4.964,-0.001 8.998,-4.033 8.998,-8.999z" fill="#000000" fill-rule="evenodd"></path><path d="M31.003,48.015l-0.024,-2c-0.007,-0.551 0.436,-1.004 0.988,-1.011c0.551,-0.007 1.004,0.436 1.011,0.988l0.024,2c0.007,0.551 -0.436,1.004 -0.988,1.011c-0.551,0.007 -1.004,-0.436 -1.011,-0.988zM36.257,47.441l-0.619,-1.901c-0.171,-0.525 0.117,-1.091 0.641,-1.261c0.525,-0.171 1.091,0.117 1.261,0.641l0.619,1.901c0.171,0.525 -0.117,1.091 -0.641,1.261c-0.525,0.171 -1.091,-0.117 -1.261,-0.641zM26.427,48.063c-0.521,-0.181 -0.797,-0.752 -0.616,-1.273l0.656,-1.888c0.181,-0.521 0.752,-0.797 1.273,-0.616c0.521,0.181 0.797,0.752 0.616,1.273l-0.656,1.888c-0.181,0.522 -0.751,0.798 -1.273,0.616zM41.089,45.197l-1.227,-1.579c-0.339,-0.436 -0.26,-1.065 0.176,-1.404c0.436,-0.339 1.065,-0.26 1.404,0.176l1.227,1.579c0.339,0.436 0.26,1.065 -0.176,1.404c-0.436,0.338 -1.066,0.26 -1.404,-0.176zM21.483,45.361c-0.433,-0.341 -0.509,-0.971 -0.169,-1.405l1.235,-1.573c0.341,-0.433 0.971,-0.509 1.405,-0.169c0.433,0.341 0.509,0.971 0.169,1.405l-1.235,1.573c-0.341,0.433 -0.97,0.509 -1.405,0.169zM44.91,41.49l-1.683,-1.083c-0.464,-0.299 -0.599,-0.917 -0.3,-1.381c0.299,-0.464 0.917,-0.599 1.381,-0.3l1.683,1.083c0.464,0.299 0.599,0.917 0.3,1.381c-0.298,0.464 -0.917,0.599 -1.381,0.3zM17.677,41.173c-0.295,-0.467 -0.155,-1.084 0.313,-1.379l1.693,-1.067c0.467,-0.295 1.084,-0.155 1.379,0.313c0.295,0.467 0.155,1.084 -0.313,1.379l-1.693,1.067c-0.467,0.295 -1.085,0.155 -1.379,-0.313zM15.482,36.043c-0.143,-0.533 0.176,-1.081 0.709,-1.223l1.933,-0.515c0.533,-0.143 1.081,0.176 1.223,0.709c0.143,0.533 -0.176,1.081 -0.709,1.223l-1.933,0.515c-0.534,0.143 -1.082,-0.175 -1.223,-0.709zM47.307,36.741l-1.944,-0.467c-0.536,-0.129 -0.867,-0.669 -0.739,-1.207c0.129,-0.536 0.669,-0.867 1.207,-0.739l1.944,0.467c0.536,0.129 0.867,0.669 0.739,1.207c-0.129,0.536 -0.669,0.867 -1.207,0.739z" fill="#000000" fill-rule="evenodd"></path><path d="M17.509,27.967c-0.52,-0.184 -0.793,-0.755 -0.611,-1.276c1.152,-3.269 3.333,-6.052 6.157,-7.959c0.457,-0.309 1.079,-0.188 1.388,0.269c0.309,0.457 0.188,1.079 -0.269,1.388c-2.472,1.669 -4.381,4.108 -5.389,6.967c-0.184,0.521 -0.755,0.794 -1.276,0.611z" fill="#000000" fill-rule="evenodd"></path><path d="M26.077,18.178c-0.183,-0.52 0.091,-1.092 0.612,-1.275c1.661,-0.585 3.448,-0.904 5.308,-0.904c0.551,0 1,0.449 1,1c0,0.552 -0.449,1 -1,1c-1.629,0 -3.192,0.28 -4.645,0.791c-0.521,0.183 -1.093,-0.091 -1.275,-0.612z" fill="#000000" fill-rule="evenodd"></path></g></g><g fill="#000000" fill-rule="nonzero" stroke="none" stroke-width="1" stroke-linecap="butt" stroke-linejoin="miter" stroke-miterlimit="10" stroke-dasharray="" stroke-dashoffset="0" font-family="none" font-weight="none" font-size="none" text-anchor="none" style="mix-blend-mode: normal"><g><path d="M53.135,284.935l-0.41,1.98h-15.55l0.42,-1.98c0.76,-0.34667 1.50333,-0.64 2.23,-0.88c0.72667,-0.24 1.49,-0.44667 2.29,-0.62v0l4.58,-21.74l1.56,-6.08h-0.42l-2.86,5.56l-15.55,25.74h-2.34l-4.63,-25.53l-0.62,-6.09h-0.47l-1.35,6.61l-4.47,21.32c0.62,0.14 1.30333,0.36333 2.05,0.67c0.74667,0.31333 1.41333,0.66 2,1.04v0l-0.41,1.98h-12.64l0.37,-1.98c0.58667,-0.30667 1.33,-0.64333 2.23,-1.01c0.9,-0.36667 1.75,-0.61667 2.55,-0.75v0l6.14,-29.18c-0.69333,-0.13333 -1.39667,-0.32333 -2.11,-0.57c-0.71333,-0.24 -1.33,-0.55 -1.85,-0.93v0l0.42,-1.98h14.09l3.28,21.16l0.41,5h0.06l2.44,-5.1l12.79,-21.06h13.11l-0.42,1.98c-0.62667,0.38 -1.31,0.69 -2.05,0.93c-0.74667,0.24667 -1.48333,0.43667 -2.21,0.57v0l-6.24,29.49c0.69333,0.14 1.35,0.34667 1.97,0.62c0.62667,0.28 1.16333,0.55667 1.61,0.83zM80.695,283.325h3.64v1.77c-0.34667,0.28 -0.80333,0.55667 -1.37,0.83c-0.57333,0.28 -1.2,0.52333 -1.88,0.73c-0.67333,0.20667 -1.38333,0.38 -2.13,0.52c-0.74667,0.14 -1.48333,0.21 -2.21,0.21v0c-1.24667,0 -2.10333,-0.25333 -2.57,-0.76c-0.46667,-0.5 -0.7,-1.02667 -0.7,-1.58v0c0,-0.62667 0.06667,-1.49333 0.2,-2.6c0.14,-1.11333 0.42,-2.39667 0.84,-3.85v0h-0.21c-0.45333,0.83333 -1.02667,1.77 -1.72,2.81c-0.69333,1.04 -1.50667,2.02 -2.44,2.94c-0.94,0.91333 -2.01667,1.67333 -3.23,2.28c-1.21333,0.60667 -2.54667,0.91 -4,0.91v0c-1.42,0 -2.57333,-0.42333 -3.46,-1.27c-0.88,-0.84667 -1.32,-2.05 -1.32,-3.61v0c0,-0.76667 0.11,-1.86 0.33,-3.28c0.22667,-1.42 0.50667,-2.97 0.84,-4.65c0.32667,-1.68667 0.69,-3.42 1.09,-5.2c0.4,-1.78667 0.75333,-3.42667 1.06,-4.92v0l-3.06,-0.67v-1.77c0.55333,-0.20667 1.24667,-0.41667 2.08,-0.63c0.82667,-0.20667 1.69333,-0.39667 2.6,-0.57c0.9,-0.17333 1.81667,-0.32 2.75,-0.44c0.94,-0.12 1.79,-0.19667 2.55,-0.23v0l1.14,0.62c-0.55333,2.6 -1.11667,5.07 -1.69,7.41c-0.56667,2.34 -1.09333,4.81 -1.58,7.41v0c-0.17333,0.83333 -0.35667,1.75333 -0.55,2.76c-0.18667,1 -0.28,2.00333 -0.28,3.01v0c0,0.62667 0.16333,1.09667 0.49,1.41c0.32667,0.30667 0.73333,0.46 1.22,0.46v0c0.86667,0 1.72667,-0.33667 2.58,-1.01c0.84667,-0.67333 1.62667,-1.48667 2.34,-2.44c0.70667,-0.95333 1.33,-1.93333 1.87,-2.94c0.53333,-1.00667 0.92333,-1.84 1.17,-2.5v0l2.7,-13.57h7.02zM98.275,281.195v0c0,-0.76 -0.20667,-1.44333 -0.62,-2.05c-0.42,-0.60667 -0.94,-1.20667 -1.56,-1.8c-0.62667,-0.58667 -1.31333,-1.16667 -2.06,-1.74c-0.74667,-0.57333 -1.43,-1.22333 -2.05,-1.95c-0.62667,-0.72667 -1.14667,-1.53333 -1.56,-2.42c-0.42,-0.88 -0.63,-1.91 -0.63,-3.09v0c0,-2.63333 0.94667,-4.6 2.84,-5.9c1.88667,-1.3 4.46,-1.95 7.72,-1.95v0c0.55333,0 1.17,0.02333 1.85,0.07c0.67333,0.05333 1.35667,0.15 2.05,0.29c0.69333,0.14 1.36,0.30333 2,0.49c0.64,0.19333 1.22,0.44667 1.74,0.76v0c0.04,0.38 0.01667,0.87333 -0.07,1.48c-0.08667,0.60667 -0.24333,1.21333 -0.47,1.82c-0.22667,0.60667 -0.52333,1.16 -0.89,1.66c-0.36,0.50667 -0.8,0.84667 -1.32,1.02v0l-4.16,-4.63c-1.11333,0 -2.04,0.22667 -2.78,0.68c-0.74667,0.44667 -1.12,1.24333 -1.12,2.39v0c0,0.76 0.21667,1.45333 0.65,2.08c0.43333,0.62 0.96,1.21667 1.58,1.79c0.62667,0.57333 1.32,1.15333 2.08,1.74c0.76667,0.59333 1.46,1.24333 2.08,1.95c0.62667,0.71333 1.15667,1.52 1.59,2.42c0.43333,0.9 0.65,1.94 0.65,3.12v0c0,1.32 -0.29333,2.48333 -0.88,3.49c-0.59333,1 -1.4,1.84667 -2.42,2.54c-1.02667,0.69333 -2.25,1.21333 -3.67,1.56c-1.42,0.34667 -2.96333,0.52 -4.63,0.52v0c-1.76667,0 -3.35,-0.19667 -4.75,-0.59c-1.40667,-0.4 -2.45667,-0.84333 -3.15,-1.33v0c-0.03333,-1.10667 0.16667,-2.2 0.6,-3.28c0.43333,-1.07333 1.06667,-1.90333 1.9,-2.49v0l5.04,4.73c1.14667,0 2.17,-0.27667 3.07,-0.83c0.9,-0.55333 1.35,-1.40333 1.35,-2.55zM115.125,264.655l-3.23,-0.72v-1.77c0.52,-0.20667 1.21333,-0.42333 2.08,-0.65c0.86667,-0.22667 1.78667,-0.42667 2.76,-0.6c0.97333,-0.17333 1.93667,-0.32 2.89,-0.44c0.95333,-0.12 1.79333,-0.18 2.52,-0.18v0l0.93,0.62l-4.68,22.41h3.64v1.77c-0.44667,0.31333 -0.97333,0.60667 -1.58,0.88c-0.60667,0.28 -1.25,0.52333 -1.93,0.73c-0.67333,0.20667 -1.35667,0.37333 -2.05,0.5c-0.69333,0.12 -1.35333,0.18 -1.98,0.18v0c-1.31333,0 -2.22333,-0.25333 -2.73,-0.76c-0.5,-0.5 -0.75,-1.04333 -0.75,-1.63v0c0,-0.69333 0.05333,-1.37 0.16,-2.03c0.1,-0.66 0.23667,-1.39 0.41,-2.19v0zM116.215,252.235v0c0,-1.18 0.4,-2.1 1.2,-2.76c0.79333,-0.66 1.79667,-0.99 3.01,-0.99v0c1.32,0 2.37,0.33 3.15,0.99c0.78,0.66 1.17,1.58 1.17,2.76v0c0,1.10667 -0.39,1.99 -1.17,2.65c-0.78,0.66 -1.83,0.99 -3.15,0.99v0c-1.21333,0 -2.21667,-0.33 -3.01,-0.99c-0.8,-0.66 -1.2,-1.54333 -1.2,-2.65zM144.865,279.945l1.2,1.3c-0.45333,0.72667 -1.04333,1.47333 -1.77,2.24c-0.72667,0.76 -1.56667,1.43667 -2.52,2.03c-0.95333,0.58667 -2.00333,1.07 -3.15,1.45c-1.14,0.38 -2.35333,0.57 -3.64,0.57v0c-2.74,0 -4.91333,-0.81333 -6.52,-2.44c-1.61333,-1.62667 -2.42,-3.89667 -2.42,-6.81v0c0,-2.42667 0.37333,-4.73333 1.12,-6.92c0.74,-2.18 1.78667,-4.09333 3.14,-5.74c1.35333,-1.64667 2.99333,-2.94667 4.92,-3.9c1.92,-0.95333 4.06,-1.43 6.42,-1.43v0c1.56,0 2.92,0.16333 4.08,0.49c1.16,0.32667 1.93,0.71667 2.31,1.17v0c0.04,0.38 -0.02,0.85667 -0.18,1.43c-0.15333,0.57333 -0.38667,1.14667 -0.7,1.72c-0.31333,0.56667 -0.68667,1.10333 -1.12,1.61c-0.43333,0.5 -0.87333,0.85333 -1.32,1.06v0l-3.18,-4.52c-0.93333,0 -1.87667,0.32 -2.83,0.96c-0.95333,0.64 -1.81,1.56 -2.57,2.76c-0.76667,1.19333 -1.39333,2.63 -1.88,4.31c-0.48,1.68667 -0.72,3.58667 -0.72,5.7v0c0,2.11333 0.43333,3.66333 1.3,4.65c0.86667,0.98667 2.02667,1.48 3.48,1.48v0c0.69333,0 1.36,-0.11 2,-0.33c0.64,-0.22667 1.24,-0.49667 1.8,-0.81c0.55333,-0.31333 1.06333,-0.65 1.53,-1.01c0.46667,-0.36667 0.87333,-0.70667 1.22,-1.02zM158.645,283.375v0c0.66,0 1.34667,-0.29333 2.06,-0.88c0.70667,-0.58667 1.38,-1.32333 2.02,-2.21c0.64667,-0.88667 1.23667,-1.85667 1.77,-2.91c0.54,-1.06 1,-2.04 1.38,-2.94v0l1.92,-10.3c-0.41333,-0.27333 -0.80333,-0.47 -1.17,-0.59c-0.36,-0.12667 -0.83667,-0.19 -1.43,-0.19v0c-1.38667,0 -2.63333,0.46 -3.74,1.38c-1.10667,0.92 -2.04333,2.11667 -2.81,3.59c-0.76,1.47333 -1.34,3.13 -1.74,4.97c-0.4,1.83333 -0.6,3.67 -0.6,5.51v0c0,1.59333 0.19,2.75333 0.57,3.48c0.38667,0.72667 0.97667,1.09 1.77,1.09zM165.305,278.645h-0.21c-0.45333,1.11333 -1.01667,2.19667 -1.69,3.25c-0.67333,1.06 -1.44333,2.00667 -2.31,2.84c-0.86667,0.82667 -1.82,1.5 -2.86,2.02c-1.04,0.52 -2.16667,0.78 -3.38,0.78v0c-1.80667,0 -3.24667,-0.65667 -4.32,-1.97c-1.07333,-1.32 -1.61,-3.28 -1.61,-5.88v0c0,-2.7 0.37333,-5.22 1.12,-7.56c0.74,-2.34 1.79667,-4.38667 3.17,-6.14c1.36667,-1.75333 3.02,-3.12333 4.96,-4.11c1.94667,-0.98667 4.11333,-1.48 6.5,-1.48v0c0.90667,0 1.68,0.10333 2.32,0.31c0.64,0.20667 1.32333,0.46667 2.05,0.78v0c0.9,-0.34667 1.87,-0.60667 2.91,-0.78c1.04,-0.17333 2.29,-0.26 3.75,-0.26v0l-4.37,22.88h3.64v1.77c-0.34667,0.28 -0.80667,0.55667 -1.38,0.83c-0.57333,0.28 -1.19667,0.52333 -1.87,0.73c-0.67333,0.20667 -1.36667,0.38 -2.08,0.52c-0.71333,0.14 -1.38,0.21 -2,0.21v0c-1.21333,0 -2.08,-0.26 -2.6,-0.78c-0.52,-0.52 -0.78,-1.05667 -0.78,-1.61v0c0,-0.62667 0.08667,-1.45 0.26,-2.47c0.17333,-1.02667 0.43333,-2.32 0.78,-3.88zM179.035,280.775l5.66,-28.65l-3.53,-0.67v-1.77c0.48667,-0.20667 1.14333,-0.41667 1.97,-0.63c0.83333,-0.20667 1.73667,-0.40333 2.71,-0.59c0.96667,-0.19333 1.96333,-0.35 2.99,-0.47c1.02,-0.12 1.96333,-0.18 2.83,-0.18v0l1.04,0.57l-6.81,34.94h3.69v1.77c-0.34667,0.28 -0.81333,0.55667 -1.4,0.83c-0.59333,0.28 -1.24333,0.52333 -1.95,0.73c-0.71333,0.20667 -1.45,0.38 -2.21,0.52c-0.76667,0.14 -1.49667,0.21 -2.19,0.21v0c-1.17333,0 -2.03,-0.25333 -2.57,-0.76c-0.54,-0.5 -0.81,-1.04333 -0.81,-1.63v0c0,-0.69333 0.05333,-1.37 0.16,-2.03c0.10667,-0.66 0.24667,-1.39 0.42,-2.19zM194.575,280.775l5.67,-28.65l-3.53,-0.67v-1.77c0.48,-0.20667 1.13667,-0.41667 1.97,-0.63c0.83333,-0.20667 1.73667,-0.40333 2.71,-0.59c0.96667,-0.19333 1.96333,-0.35 2.99,-0.47c1.02,-0.12 1.96333,-0.18 2.83,-0.18v0l1.04,0.57l-6.81,34.94h3.69v1.77c-0.34667,0.28 -0.81333,0.55667 -1.4,0.83c-0.59333,0.28 -1.24333,0.52333 -1.95,0.73c-0.71333,0.20667 -1.45,0.38 -2.21,0.52c-0.76667,0.14 -1.49667,0.21 -2.19,0.21v0c-1.18,0 -2.03667,-0.25333 -2.57,-0.76c-0.54,-0.5 -0.81,-1.04333 -0.81,-1.63v0c0,-0.69333 0.05333,-1.37 0.16,-2.03c0.1,-0.66 0.23667,-1.39 0.41,-2.19zM218.755,286.915l-7.17,-22.31l-3.33,-0.41v-1.77c0.17333,-0.14 0.52,-0.32333 1.04,-0.55c0.52,-0.22667 1.13667,-0.46 1.85,-0.7c0.70667,-0.24 1.46,-0.44667 2.26,-0.62c0.79333,-0.17333 1.57333,-0.26 2.34,-0.26v0c0.93333,0 1.66,0.22333 2.18,0.67c0.52,0.45333 0.86667,1.07667 1.04,1.87v0l4.01,15.76l0.26,3.12h0.1l1.09,-3.07c0.69333,-1.66 1.37,-3.45333 2.03,-5.38c0.66,-1.92667 1.18,-3.72 1.56,-5.38v0c0,-0.38 -0.06,-0.91 -0.18,-1.59c-0.12,-0.67333 -0.25,-1.36667 -0.39,-2.08c-0.14,-0.70667 -0.28,-1.36333 -0.42,-1.97c-0.14,-0.60667 -0.24333,-1.01667 -0.31,-1.23v0c0.48667,-0.20667 1.09333,-0.36 1.82,-0.46c0.72667,-0.10667 1.45333,-0.16 2.18,-0.16v0c0.73333,0 1.41,0.05333 2.03,0.16c0.62667,0.1 1.13,0.25333 1.51,0.46v0c-0.9,4.12667 -2.27667,8.41 -4.13,12.85c-1.86,4.43333 -4.00333,8.78333 -6.43,13.05v0c-2.00667,3.57333 -4.00667,6.27667 -6,8.11c-1.99333,1.84 -4.29,2.76 -6.89,2.76v0c-0.72667,0 -1.39333,-0.09667 -2,-0.29c-0.60667,-0.18667 -1.15333,-0.43667 -1.64,-0.75v0c-0.10667,-0.48667 -0.07333,-1.06 0.1,-1.72c0.17333,-0.66 0.42667,-1.3 0.76,-1.92c0.32667,-0.62667 0.71667,-1.2 1.17,-1.72c0.44667,-0.52 0.91333,-0.86667 1.4,-1.04v0l3.9,2.76c0.24,-0.17333 0.55333,-0.42667 0.94,-0.76c0.38,-0.32667 0.76,-0.74 1.14,-1.24c0.38,-0.50667 0.76,-1.10667 1.14,-1.8c0.38667,-0.69333 0.73333,-1.49 1.04,-2.39z"></path></g></g></g>
</svg>